ffmpeg started on 2026-01-10 at 18:11:15
Report written to "D:\Convert\FFMetrics\reports\psnr_report-6.txt"
Log level: 32
Command line:
ffmpeg -hide_banner -nostdin -r 24000/1001 -i "F:\\Convert\\files\\Nanatsu_no_Maken_ga_Shihai_suru_[02]_[AniLibria_TV]_[WEBRip_1080p]_HEVC(71).mkv" -r 24000/1001 -i "F:\\Convert\\files\\Nanatsu_no_Maken_ga_Shihai_suru_[02]_[AniLibria_TV]_[WEBRip_1080p].mkv" -lavfi "[0:v]settb=AVTB,setpts=PTS-STARTPTS,format=pix_fmts=yuv420p10le,fps=24000/1001,scale=1920:1080:flags=lanczos:param0=3:out_range=limited:out_color_matrix=bt709:out_chroma_loc=left,setsar=1/1,setdar=(1920/1080)*(1/1),colorspace=format=yuv420p10:range=tv:primaries=bt709:trc=bt709:space=bt709:fast=0[main];[1:v]settb=AVTB,setpts=PTS-STARTPTS,format=pix_fmts=yuv420p,fps=24000/1001,scale=1920:1080:flags=lanczos:param0=3:out_range=limited:out_color_matrix=bt709:out_chroma_loc=left,setsar=1.000,setdar=1.778,colorspace=format=yuv420p:range=tv:primaries=bt709:trc=bt709:space=bt709:fast=0[ref];[main][ref]psnr=eof_action=endall:stats_file='D\\:/Convert/FFMetrics/logs/psnr_logfile-6.txt'" -f null -
Input #0, matroska,webm, from 'F:\Convert\files\Nanatsu_no_Maken_ga_Shihai_suru_[02]_[AniLibria_TV]_[WEBRip_1080p]_HEVC(71).mkv':
  Metadata:
    ENCODER         : Lavf61.7.100
  Duration: 00:23:40.14, start: -0.021000, bitrate: 1195 kb/s
  Stream #0:0: Video: hevc (Main 10), yuv420p10le(tv, bt709, progressive), 1920x1080 [SAR 1:1 DAR 16:9], 23.98 fps, 23.98 tbr, 1k tbn (default)
      Metadata:
        title           : Original
        ENCODER         : Lavc61.19.100 libx265
        BPS             : 955899
        DURATION        : 00:23:40.043708333
        NUMBER_OF_FRAMES: 34047
        NUMBER_OF_BYTES : 169677357
        _STATISTICS_WRITING_APP: mkvpropedit v94.0 ('Initiate') 64-bit
        _STATISTICS_WRITING_DATE_UTC: 2026-01-10 14:39:40
        _STATISTICS_TAGS: BPS DURATION NUMBER_OF_FRAMES NUMBER_OF_BYTES
  Stream #0:1(rus): Audio: aac (LC), 48000 Hz, stereo, fltp (default)
      Metadata:
        title           : AniLibria.TV
        ENCODER         : Lavc61.19.100 aac
        BPS             : 194075
        DURATION        : 00:23:40.117000000
        NUMBER_OF_FRAMES: 66569
        NUMBER_OF_BYTES : 34451214
        _STATISTICS_WRITING_APP: mkvpropedit v94.0 ('Initiate') 64-bit
        _STATISTICS_WRITING_DATE_UTC: 2026-01-10 14:39:40
        _STATISTICS_TAGS: BPS DURATION NUMBER_OF_FRAMES NUMBER_OF_BYTES
  Stream #0:2(rus): Subtitle: ass (ssa) (default)
      Metadata:
        title           : Надписи
        BPS             : 340
        DURATION        : 00:22:14.570000000
        NUMBER_OF_FRAMES: 381
        NUMBER_OF_BYTES : 56799
        _STATISTICS_WRITING_APP: mkvpropedit v94.0 ('Initiate') 64-bit
        _STATISTICS_WRITING_DATE_UTC: 2026-01-10 14:39:40
        _STATISTICS_TAGS: BPS DURATION NUMBER_OF_FRAMES NUMBER_OF_BYTES
  Stream #0:3(rus): Subtitle: ass (ssa)
      Metadata:
        title           : Субтитры
        BPS             : 489
        DURATION        : 00:23:37.340000000
        NUMBER_OF_FRAMES: 749
        NUMBER_OF_BYTES : 86800
        _STATISTICS_WRITING_APP: mkvpropedit v94.0 ('Initiate') 64-bit
        _STATISTICS_WRITING_DATE_UTC: 2026-01-10 14:39:40
        _STATISTICS_TAGS: BPS DURATION NUMBER_OF_FRAMES NUMBER_OF_BYTES
  Stream #0:4: Attachment: ttf
      Metadata:
        filename        : AGPMOD.TTF
        mimetype        : application/x-truetype-font
  Stream #0:5: Attachment: ttf
      Metadata:
        filename        : DFPSNGyosho-W5-CP-Spec.ttf
        mimetype        : application/x-truetype-font
  Stream #0:6: Attachment: ttf
      Metadata:
        filename        : Modernist One.ttf
        mimetype        : application/x-truetype-font
  Stream #0:7: Attachment: ttf
      Metadata:
        filename        : 1125177.TTF
        mimetype        : application/x-truetype-font
  Stream #0:8: Attachment: ttf
      Metadata:
        filename        : Roboto-Medium.ttf
        mimetype        : application/x-truetype-font
  Stream #0:9: Attachment: ttf
      Metadata:
        filename        : Roboto-MediumItalic.ttf
        mimetype        : application/x-truetype-font
  Stream #0:10: Attachment: ttf
      Metadata:
        filename        : arial.ttf
        mimetype        : application/x-truetype-font
  Stream #0:11: Attachment: ttf
      Metadata:
        filename        : arialbd.ttf
        mimetype        : application/x-truetype-font
  Stream #0:12: Attachment: ttf
      Metadata:
        filename        : comic.ttf
        mimetype        : application/x-truetype-font
  Stream #0:13: Attachment: ttf
      Metadata:
        filename        : comicbd.ttf
        mimetype        : application/x-truetype-font
  Stream #0:14: Attachment: ttf
      Metadata:
        filename        : times.ttf
        mimetype        : application/x-truetype-font
  Stream #0:15: Attachment: ttf
      Metadata:
        filename        : timesbd.ttf
        mimetype        : application/x-truetype-font
  Stream #0:16: Attachment: ttf
      Metadata:
        filename        : trebuc.ttf
        mimetype        : application/x-truetype-font
  Stream #0:17: Attachment: ttf
      Metadata:
        filename        : trebucbd.ttf
        mimetype        : application/x-truetype-font
  Stream #0:18: Attachment: ttf
      Metadata:
        filename        : verdana.ttf
        mimetype        : application/x-truetype-font
  Stream #0:19: Attachment: ttf
      Metadata:
        filename        : verdanab.ttf
        mimetype        : application/x-truetype-font
  Stream #0:20: Attachment: ttf
      Metadata:
        filename        : CONSOLA.TTF
        mimetype        : application/x-truetype-font
  Stream #0:21: Attachment: ttf
      Metadata:
        filename        : CONSOLAB.TTF
        mimetype        : application/x-truetype-font
Input #1, matroska,webm, from 'F:\Convert\files\Nanatsu_no_Maken_ga_Shihai_suru_[02]_[AniLibria_TV]_[WEBRip_1080p].mkv':
  Metadata:
    encoder         : libebml v1.4.4 + libmatroska v1.7.1
    creation_time   : 2023-07-15T11:47:58.000000Z
  Duration: 00:23:40.12, start: 0.000000, bitrate: 8335 kb/s
  Stream #1:0: Video: h264 (High), yuv420p(tv, bt709, progressive), 1920x1080 [SAR 1:1 DAR 16:9], 23.98 fps, 23.98 tbr, 1k tbn (default)
      Metadata:
        title           : Original
        BPS             : 7971709
        DURATION        : 00:23:40.045000000
        NUMBER_OF_FRAMES: 34047
        NUMBER_OF_BYTES : 1415023222
        _STATISTICS_WRITING_APP: mkvmerge v77.0 ('Elemental') 64-bit
        _STATISTICS_WRITING_DATE_UTC: 2023-07-15 11:47:58
        _STATISTICS_TAGS: BPS DURATION NUMBER_OF_FRAMES NUMBER_OF_BYTES
  Stream #1:1(rus): Audio: aac (LC), 48000 Hz, stereo, fltp (default)
      Metadata:
        title           : AniLibria.TV
        BPS             : 191999
        DURATION        : 00:23:40.117000000
        NUMBER_OF_FRAMES: 66568
        NUMBER_OF_BYTES : 34082731
        _STATISTICS_WRITING_APP: mkvmerge v77.0 ('Elemental') 64-bit
        _STATISTICS_WRITING_DATE_UTC: 2023-07-15 11:47:58
        _STATISTICS_TAGS: BPS DURATION NUMBER_OF_FRAMES NUMBER_OF_BYTES
  Stream #1:2(jpn): Audio: aac (LC), 44100 Hz, stereo, fltp
      Metadata:
        title           : Original
        BPS             : 128000
        DURATION        : 00:23:40.109000000
        NUMBER_OF_FRAMES: 61159
        NUMBER_OF_BYTES : 22721748
        _STATISTICS_WRITING_APP: mkvmerge v77.0 ('Elemental') 64-bit
        _STATISTICS_WRITING_DATE_UTC: 2023-07-15 11:47:58
        _STATISTICS_TAGS: BPS DURATION NUMBER_OF_FRAMES NUMBER_OF_BYTES
  Stream #1:3(rus): Subtitle: ass (ssa) (default)
      Metadata:
        title           : Надписи
        BPS             : 340
        DURATION        : 00:22:14.570000000
        NUMBER_OF_FRAMES: 381
        NUMBER_OF_BYTES : 56799
        _STATISTICS_WRITING_APP: mkvmerge v77.0 ('Elemental') 64-bit
        _STATISTICS_WRITING_DATE_UTC: 2023-07-15 11:47:58
        _STATISTICS_TAGS: BPS DURATION NUMBER_OF_FRAMES NUMBER_OF_BYTES
  Stream #1:4(rus): Subtitle: ass (ssa)
      Metadata:
        title           : Субтитры
        BPS             : 489
        DURATION        : 00:23:37.340000000
        NUMBER_OF_FRAMES: 749
        NUMBER_OF_BYTES : 86800
        _STATISTICS_WRITING_APP: mkvmerge v77.0 ('Elemental') 64-bit
        _STATISTICS_WRITING_DATE_UTC: 2023-07-15 11:47:58
        _STATISTICS_TAGS: BPS DURATION NUMBER_OF_FRAMES NUMBER_OF_BYTES
  Stream #1:5: Attachment: ttf
      Metadata:
        filename        : AGPMOD.TTF
        mimetype        : application/x-truetype-font
  Stream #1:6: Attachment: ttf
      Metadata:
        filename        : DFPSNGyosho-W5-CP-Spec.ttf
        mimetype        : application/x-truetype-font
  Stream #1:7: Attachment: ttf
      Metadata:
        filename        : Modernist One.ttf
        mimetype        : application/x-truetype-font
  Stream #1:8: Attachment: ttf
      Metadata:
        filename        : 1125177.TTF
        mimetype        : application/x-truetype-font
  Stream #1:9: Attachment: ttf
      Metadata:
        filename        : Roboto-Medium.ttf
        mimetype        : application/x-truetype-font
  Stream #1:10: Attachment: ttf
      Metadata:
        filename        : Roboto-MediumItalic.ttf
        mimetype        : application/x-truetype-font
  Stream #1:11: Attachment: ttf
      Metadata:
        filename        : arial.ttf
        mimetype        : application/x-truetype-font
  Stream #1:12: Attachment: ttf
      Metadata:
        filename        : arialbd.ttf
        mimetype        : application/x-truetype-font
  Stream #1:13: Attachment: ttf
      Metadata:
        filename        : comic.ttf
        mimetype        : application/x-truetype-font
  Stream #1:14: Attachment: ttf
      Metadata:
        filename        : comicbd.ttf
        mimetype        : application/x-truetype-font
  Stream #1:15: Attachment: ttf
      Metadata:
        filename        : times.ttf
        mimetype        : application/x-truetype-font
  Stream #1:16: Attachment: ttf
      Metadata:
        filename        : timesbd.ttf
        mimetype        : application/x-truetype-font
  Stream #1:17: Attachment: ttf
      Metadata:
        filename        : trebuc.ttf
        mimetype        : application/x-truetype-font
  Stream #1:18: Attachment: ttf
      Metadata:
        filename        : trebucbd.ttf
        mimetype        : application/x-truetype-font
  Stream #1:19: Attachment: ttf
      Metadata:
        filename        : verdana.ttf
        mimetype        : application/x-truetype-font
  Stream #1:20: Attachment: ttf
      Metadata:
        filename        : verdanab.ttf
        mimetype        : application/x-truetype-font
  Stream #1:21: Attachment: ttf
      Metadata:
        filename        : CONSOLA.TTF
        mimetype        : application/x-truetype-font
  Stream #1:22: Attachment: ttf
      Metadata:
        filename        : CONSOLAB.TTF
        mimetype        : application/x-truetype-font
Stream mapping:
  Stream #0:0 (hevc) -> settb:default
  Stream #1:0 (h264) -> settb:default
  psnr:default -> Stream #0:0 (wrapped_avframe)
  Stream #0:1 -> #0:1 (aac (native) -> pcm_s16le (native))
Output #0, null, to 'pipe:':
  Metadata:
    encoder         : Lavf61.7.100
  Stream #0:0: Video: wrapped_avframe, yuv420p10le(tv, bt709, progressive), 1920x1080 [SAR 1:1 DAR 16:9], q=2-31, 200 kb/s, 23.98 fps, 23.98 tbn
      Metadata:
        encoder         : Lavc61.19.100 wrapped_avframe
  Stream #0:1(rus): Audio: pcm_s16le, 48000 Hz, stereo, s16, 1536 kb/s (default)
      Metadata:
        title           : AniLibria.TV
        _STATISTICS_TAGS: BPS DURATION NUMBER_OF_FRAMES NUMBER_OF_BYTES
        BPS             : 194075
        DURATION        : 00:23:40.117000000
        NUMBER_OF_FRAMES: 66569
        NUMBER_OF_BYTES : 34451214
        _STATISTICS_WRITING_APP: mkvpropedit v94.0 ('Initiate') 64-bit
        _STATISTICS_WRITING_DATE_UTC: 2026-01-10 14:39:40
        encoder         : Lavc61.19.100 pcm_s16le
frame=  132 fps=0.0 q=-0.0 size=N/A time=00:00:05.50 bitrate=N/A speed=10.8x    frame=  331 fps=319 q=-0.0 size=N/A time=00:00:13.80 bitrate=N/A speed=13.3x    frame=  530 fps=343 q=-0.0 size=N/A time=00:00:22.10 bitrate=N/A speed=14.3x    frame=  735 fps=357 q=-0.0 size=N/A time=00:00:30.65 bitrate=N/A speed=14.9x    frame=  948 fps=368 q=-0.0 size=N/A time=00:00:39.53 bitrate=N/A speed=15.3x    frame= 1144 fps=369 q=-0.0 size=N/A time=00:00:47.71 bitrate=N/A speed=15.4x    frame= 1343 fps=372 q=-0.0 size=N/A time=00:00:56.01 bitrate=N/A speed=15.5x    frame= 1548 fps=375 q=-0.0 size=N/A time=00:01:04.56 bitrate=N/A speed=15.7x    frame= 1755 fps=377 q=-0.0 size=N/A time=00:01:13.19 bitrate=N/A speed=15.7x    frame= 1955 fps=379 q=-0.0 size=N/A time=00:01:21.53 bitrate=N/A speed=15.8x    frame= 2148 fps=379 q=-0.0 size=N/A time=00:01:29.58 bitrate=N/A speed=15.8x    frame= 2315 fps=374 q=-0.0 size=N/A time=00:01:36.55 bitrate=N/A speed=15.6x    frame= 2484 fps=371 q=-0.0 size=N/A time=00:01:43.60 bitrate=N/A speed=15.5x    frame= 2663 fps=369 q=-0.0 size=N/A time=00:01:51.06 bitrate=N/A speed=15.4x    frame= 2830 fps=366 q=-0.0 size=N/A time=00:01:58.03 bitrate=N/A speed=15.3x    frame= 3010 fps=365 q=-0.0 size=N/A time=00:02:05.54 bitrate=N/A speed=15.2x    frame= 3166 fps=361 q=-0.0 size=N/A time=00:02:12.04 bitrate=N/A speed=15.1x    frame= 3331 fps=359 q=-0.0 size=N/A time=00:02:18.93 bitrate=N/A speed=  15x    frame= 3507 fps=358 q=-0.0 size=N/A time=00:02:26.27 bitrate=N/A speed=14.9x    frame= 3688 fps=357 q=-0.0 size=N/A time=00:02:33.82 bitrate=N/A speed=14.9x    frame= 3875 fps=358 q=-0.0 size=N/A time=00:02:41.61 bitrate=N/A speed=14.9x    frame= 4061 fps=358 q=-0.0 size=N/A time=00:02:49.37 bitrate=N/A speed=14.9x    frame= 4244 fps=358 q=-0.0 size=N/A time=00:02:57.01 bitrate=N/A speed=14.9x    frame= 4428 fps=358 q=-0.0 size=N/A time=00:03:04.68 bitrate=N/A speed=14.9x    frame= 4630 fps=359 q=-0.0 size=N/A time=00:03:13.10 bitrate=N/A speed=  15x    frame= 4821 fps=360 q=-0.0 size=N/A time=00:03:21.07 bitrate=N/A speed=  15x    frame= 5010 fps=360 q=-0.0 size=N/A time=00:03:28.95 bitrate=N/A speed=  15x    frame= 5138 fps=356 q=-0.0 size=N/A time=00:03:34.29 bitrate=N/A speed=14.8x    frame= 5283 fps=353 q=-0.0 size=N/A time=00:03:40.34 bitrate=N/A speed=14.7x    frame= 5494 fps=355 q=-0.0 size=N/A time=00:03:49.14 bitrate=N/A speed=14.8x    frame= 5692 fps=356 q=-0.0 size=N/A time=00:03:57.40 bitrate=N/A speed=14.9x    frame= 5903 fps=358 q=-0.0 size=N/A time=00:04:06.20 bitrate=N/A speed=14.9x    frame= 6095 fps=358 q=-0.0 size=N/A time=00:04:14.21 bitrate=N/A speed=14.9x    frame= 6308 fps=360 q=-0.0 size=N/A time=00:04:23.09 bitrate=N/A speed=  15x    frame= 6507 fps=361 q=-0.0 size=N/A time=00:04:31.39 bitrate=N/A speed=  15x    frame= 6707 fps=361 q=-0.0 size=N/A time=00:04:39.73 bitrate=N/A speed=15.1x    frame= 6900 fps=362 q=-0.0 size=N/A time=00:04:47.78 bitrate=N/A speed=15.1x    frame= 7097 fps=362 q=-0.0 size=N/A time=00:04:56.00 bitrate=N/A speed=15.1x    frame= 7302 fps=363 q=-0.0 size=N/A time=00:05:04.55 bitrate=N/A speed=15.1x    frame= 7495 fps=363 q=-0.0 size=N/A time=00:05:12.60 bitrate=N/A speed=15.2x    frame= 7694 fps=364 q=-0.0 size=N/A time=00:05:20.90 bitrate=N/A speed=15.2x    frame= 7906 fps=365 q=-0.0 size=N/A time=00:05:29.74 bitrate=N/A speed=15.2x    frame= 8097 fps=365 q=-0.0 size=N/A time=00:05:37.71 bitrate=N/A speed=15.2x    frame= 8306 fps=366 q=-0.0 size=N/A time=00:05:46.42 bitrate=N/A speed=15.3x    frame= 8509 fps=367 q=-0.0 size=N/A time=00:05:54.89 bitrate=N/A speed=15.3x    frame= 8715 fps=367 q=-0.0 size=N/A time=00:06:03.48 bitrate=N/A speed=15.3x    frame= 8904 fps=367 q=-0.0 size=N/A time=00:06:11.37 bitrate=N/A speed=15.3x    frame= 9094 fps=367 q=-0.0 size=N/A time=00:06:19.29 bitrate=N/A speed=15.3x    frame= 9286 fps=368 q=-0.0 size=N/A time=00:06:27.30 bitrate=N/A speed=15.3x    frame= 9479 fps=368 q=-0.0 size=N/A time=00:06:35.35 bitrate=N/A speed=15.3x    frame= 9687 fps=368 q=-0.0 size=N/A time=00:06:44.02 bitrate=N/A speed=15.4x    frame= 9874 fps=368 q=-0.0 size=N/A time=00:06:51.82 bitrate=N/A speed=15.4x    frame=10060 fps=368 q=-0.0 size=N/A time=00:06:59.58 bitrate=N/A speed=15.3x    frame=10238 fps=367 q=-0.0 size=N/A time=00:07:07.00 bitrate=N/A speed=15.3x    frame=10408 fps=367 q=-0.0 size=N/A time=00:07:14.10 bitrate=N/A speed=15.3x    frame=10574 fps=366 q=-0.0 size=N/A time=00:07:21.02 bitrate=N/A speed=15.3x    frame=10744 fps=365 q=-0.0 size=N/A time=00:07:28.11 bitrate=N/A speed=15.2x    frame=10914 fps=365 q=-0.0 size=N/A time=00:07:35.20 bitrate=N/A speed=15.2x    frame=11070 fps=364 q=-0.0 size=N/A time=00:07:41.71 bitrate=N/A speed=15.2x    frame=11241 fps=363 q=-0.0 size=N/A time=00:07:48.84 bitrate=N/A speed=15.1x    frame=11425 fps=363 q=-0.0 size=N/A time=00:07:56.51 bitrate=N/A speed=15.1x    frame=11568 fps=362 q=-0.0 size=N/A time=00:08:02.48 bitrate=N/A speed=15.1x    frame=11756 fps=362 q=-0.0 size=N/A time=00:08:10.32 bitrate=N/A speed=15.1x    frame=11951 fps=362 q=-0.0 size=N/A time=00:08:18.45 bitrate=N/A speed=15.1x    frame=12145 fps=362 q=-0.0 size=N/A time=00:08:26.54 bitrate=N/A speed=15.1x    frame=12335 fps=362 q=-0.0 size=N/A time=00:08:34.47 bitrate=N/A speed=15.1x    frame=12517 fps=362 q=-0.0 size=N/A time=00:08:42.06 bitrate=N/A speed=15.1x    frame=12687 fps=362 q=-0.0 size=N/A time=00:08:49.15 bitrate=N/A speed=15.1x    frame=12859 fps=361 q=-0.0 size=N/A time=00:08:56.32 bitrate=N/A speed=15.1x    frame=13055 fps=361 q=-0.0 size=N/A time=00:09:04.50 bitrate=N/A speed=15.1x    frame=13255 fps=362 q=-0.0 size=N/A time=00:09:12.84 bitrate=N/A speed=15.1x    frame=13443 fps=362 q=-0.0 size=N/A time=00:09:20.68 bitrate=N/A speed=15.1x    frame=13645 fps=362 q=-0.0 size=N/A time=00:09:29.11 bitrate=N/A speed=15.1x    frame=13845 fps=363 q=-0.0 size=N/A time=00:09:37.45 bitrate=N/A speed=15.1x    frame=14041 fps=363 q=-0.0 size=N/A time=00:09:45.62 bitrate=N/A speed=15.1x    frame=14234 fps=363 q=-0.0 size=N/A time=00:09:53.67 bitrate=N/A speed=15.1x    frame=14429 fps=363 q=-0.0 size=N/A time=00:10:01.80 bitrate=N/A speed=15.2x    frame=14628 fps=364 q=-0.0 size=N/A time=00:10:10.10 bitrate=N/A speed=15.2x    frame=14823 fps=364 q=-0.0 size=N/A time=00:10:18.24 bitrate=N/A speed=15.2x    frame=15026 fps=364 q=-0.0 size=N/A time=00:10:26.70 bitrate=N/A speed=15.2x    frame=15220 fps=364 q=-0.0 size=N/A time=00:10:34.80 bitrate=N/A speed=15.2x    frame=15406 fps=364 q=-0.0 size=N/A time=00:10:42.55 bitrate=N/A speed=15.2x    frame=15597 fps=364 q=-0.0 size=N/A time=00:10:50.52 bitrate=N/A speed=15.2x    frame=15785 fps=364 q=-0.0 size=N/A time=00:10:58.36 bitrate=N/A speed=15.2x    frame=15974 fps=364 q=-0.0 size=N/A time=00:11:06.24 bitrate=N/A speed=15.2x    frame=16165 fps=364 q=-0.0 size=N/A time=00:11:14.21 bitrate=N/A speed=15.2x    frame=16325 fps=364 q=-0.0 size=N/A time=00:11:20.88 bitrate=N/A speed=15.2x    frame=16516 fps=364 q=-0.0 size=N/A time=00:11:28.85 bitrate=N/A speed=15.2x    frame=16697 fps=364 q=-0.0 size=N/A time=00:11:36.40 bitrate=N/A speed=15.2x    frame=16853 fps=363 q=-0.0 size=N/A time=00:11:42.91 bitrate=N/A speed=15.1x    frame=17044 fps=363 q=-0.0 size=N/A time=00:11:50.87 bitrate=N/A speed=15.1x    frame=17205 fps=363 q=-0.0 size=N/A time=00:11:57.59 bitrate=N/A speed=15.1x    frame=17395 fps=363 q=-0.0 size=N/A time=00:12:05.51 bitrate=N/A speed=15.1x    frame=17592 fps=363 q=-0.0 size=N/A time=00:12:13.73 bitrate=N/A speed=15.1x    frame=17780 fps=363 q=-0.0 size=N/A time=00:12:21.57 bitrate=N/A speed=15.1x    frame=17955 fps=363 q=-0.0 size=N/A time=00:12:28.87 bitrate=N/A speed=15.1x    frame=18123 fps=362 q=-0.0 size=N/A time=00:12:35.88 bitrate=N/A speed=15.1x    frame=18320 fps=362 q=-0.0 size=N/A time=00:12:44.09 bitrate=N/A speed=15.1x    frame=18510 fps=363 q=-0.0 size=N/A time=00:12:52.02 bitrate=N/A speed=15.1x    frame=18707 fps=363 q=-0.0 size=N/A time=00:13:00.23 bitrate=N/A speed=15.1x    frame=18885 fps=363 q=-0.0 size=N/A time=00:13:07.66 bitrate=N/A speed=15.1x    frame=19071 fps=362 q=-0.0 size=N/A time=00:13:15.41 bitrate=N/A speed=15.1x    frame=19273 fps=363 q=-0.0 size=N/A time=00:13:23.84 bitrate=N/A speed=15.1x    frame=19475 fps=363 q=-0.0 size=N/A time=00:13:32.26 bitrate=N/A speed=15.1x    frame=19670 fps=363 q=-0.0 size=N/A time=00:13:40.40 bitrate=N/A speed=15.1x    frame=19871 fps=363 q=-0.0 size=N/A time=00:13:48.78 bitrate=N/A speed=15.2x    frame=20077 fps=364 q=-0.0 size=N/A time=00:13:57.37 bitrate=N/A speed=15.2x    frame=20278 fps=364 q=-0.0 size=N/A time=00:14:05.76 bitrate=N/A speed=15.2x    frame=20480 fps=364 q=-0.0 size=N/A time=00:14:14.18 bitrate=N/A speed=15.2x    frame=20684 fps=365 q=-0.0 size=N/A time=00:14:22.69 bitrate=N/A speed=15.2x    frame=20871 fps=364 q=-0.0 size=N/A time=00:14:30.49 bitrate=N/A speed=15.2x    frame=21082 fps=365 q=-0.0 size=N/A time=00:14:39.29 bitrate=N/A speed=15.2x    frame=21286 fps=365 q=-0.0 size=N/A time=00:14:47.80 bitrate=N/A speed=15.2x    frame=21474 fps=365 q=-0.0 size=N/A time=00:14:55.64 bitrate=N/A speed=15.2x    frame=21666 fps=365 q=-0.0 size=N/A time=00:15:03.65 bitrate=N/A speed=15.2x    frame=21862 fps=365 q=-0.0 size=N/A time=00:15:11.82 bitrate=N/A speed=15.2x    frame=22036 fps=365 q=-0.0 size=N/A time=00:15:19.08 bitrate=N/A speed=15.2x    frame=22229 fps=365 q=-0.0 size=N/A time=00:15:27.13 bitrate=N/A speed=15.2x    frame=22437 fps=365 q=-0.0 size=N/A time=00:15:35.80 bitrate=N/A speed=15.2x    frame=22643 fps=366 q=-0.0 size=N/A time=00:15:44.40 bitrate=N/A speed=15.3x    frame=22849 fps=366 q=-0.0 size=N/A time=00:15:52.99 bitrate=N/A speed=15.3x    frame=23046 fps=366 q=-0.0 size=N/A time=00:16:01.21 bitrate=N/A speed=15.3x    frame=23234 fps=366 q=-0.0 size=N/A time=00:16:09.05 bitrate=N/A speed=15.3x    frame=23435 fps=366 q=-0.0 size=N/A time=00:16:17.43 bitrate=N/A speed=15.3x    frame=23630 fps=366 q=-0.0 size=N/A time=00:16:25.56 bitrate=N/A speed=15.3x    frame=23843 fps=367 q=-0.0 size=N/A time=00:16:34.45 bitrate=N/A speed=15.3x    frame=24051 fps=367 q=-0.0 size=N/A time=00:16:43.12 bitrate=N/A speed=15.3x    frame=24254 fps=367 q=-0.0 size=N/A time=00:16:51.59 bitrate=N/A speed=15.3x    frame=24462 fps=368 q=-0.0 size=N/A time=00:17:00.26 bitrate=N/A speed=15.3x    frame=24664 fps=368 q=-0.0 size=N/A time=00:17:08.69 bitrate=N/A speed=15.3x    frame=24843 fps=368 q=-0.0 size=N/A time=00:17:16.16 bitrate=N/A speed=15.3x    frame=25042 fps=368 q=-0.0 size=N/A time=00:17:24.46 bitrate=N/A speed=15.3x    frame=25240 fps=368 q=-0.0 size=N/A time=00:17:32.71 bitrate=N/A speed=15.3x    frame=25438 fps=368 q=-0.0 size=N/A time=00:17:40.97 bitrate=N/A speed=15.4x    frame=25641 fps=368 q=-0.0 size=N/A time=00:17:49.44 bitrate=N/A speed=15.4x    frame=25817 fps=368 q=-0.0 size=N/A time=00:17:56.78 bitrate=N/A speed=15.3x    frame=25995 fps=368 q=-0.0 size=N/A time=00:18:04.20 bitrate=N/A speed=15.3x    frame=26191 fps=368 q=-0.0 size=N/A time=00:18:12.38 bitrate=N/A speed=15.3x    frame=26398 fps=368 q=-0.0 size=N/A time=00:18:21.01 bitrate=N/A speed=15.4x    frame=26590 fps=368 q=-0.0 size=N/A time=00:18:29.02 bitrate=N/A speed=15.4x    frame=26799 fps=368 q=-0.0 size=N/A time=00:18:37.74 bitrate=N/A speed=15.4x    frame=26982 fps=368 q=-0.0 size=N/A time=00:18:45.37 bitrate=N/A speed=15.4x    frame=27178 fps=368 q=-0.0 size=N/A time=00:18:53.54 bitrate=N/A speed=15.4x    frame=27382 fps=369 q=-0.0 size=N/A time=00:19:02.05 bitrate=N/A speed=15.4x    frame=27575 fps=369 q=-0.0 size=N/A time=00:19:10.10 bitrate=N/A speed=15.4x    frame=27765 fps=369 q=-0.0 size=N/A time=00:19:18.03 bitrate=N/A speed=15.4x    frame=27970 fps=369 q=-0.0 size=N/A time=00:19:26.58 bitrate=N/A speed=15.4x    frame=28165 fps=369 q=-0.0 size=N/A time=00:19:34.71 bitrate=N/A speed=15.4x    frame=28367 fps=369 q=-0.0 size=N/A time=00:19:43.14 bitrate=N/A speed=15.4x    frame=28553 fps=369 q=-0.0 size=N/A time=00:19:50.89 bitrate=N/A speed=15.4x    frame=28745 fps=369 q=-0.0 size=N/A time=00:19:58.90 bitrate=N/A speed=15.4x    frame=28936 fps=369 q=-0.0 size=N/A time=00:20:06.87 bitrate=N/A speed=15.4x    frame=29127 fps=369 q=-0.0 size=N/A time=00:20:14.83 bitrate=N/A speed=15.4x    frame=29320 fps=369 q=-0.0 size=N/A time=00:20:22.88 bitrate=N/A speed=15.4x    frame=29507 fps=369 q=-0.0 size=N/A time=00:20:30.68 bitrate=N/A speed=15.4x    frame=29716 fps=369 q=-0.0 size=N/A time=00:20:39.40 bitrate=N/A speed=15.4x    frame=29916 fps=369 q=-0.0 size=N/A time=00:20:47.74 bitrate=N/A speed=15.4x    frame=30099 fps=369 q=-0.0 size=N/A time=00:20:55.37 bitrate=N/A speed=15.4x    frame=30292 fps=369 q=-0.0 size=N/A time=00:21:03.42 bitrate=N/A speed=15.4x    frame=30484 fps=369 q=-0.0 size=N/A time=00:21:11.43 bitrate=N/A speed=15.4x    frame=30675 fps=369 q=-0.0 size=N/A time=00:21:19.40 bitrate=N/A speed=15.4x    frame=30872 fps=369 q=-0.0 size=N/A time=00:21:27.61 bitrate=N/A speed=15.4x    frame=31069 fps=370 q=-0.0 size=N/A time=00:21:35.83 bitrate=N/A speed=15.4x    frame=31262 fps=370 q=-0.0 size=N/A time=00:21:43.88 bitrate=N/A speed=15.4x    frame=31451 fps=370 q=-0.0 size=N/A time=00:21:51.76 bitrate=N/A speed=15.4x    frame=31647 fps=370 q=-0.0 size=N/A time=00:21:59.94 bitrate=N/A speed=15.4x    frame=31851 fps=370 q=-0.0 size=N/A time=00:22:08.45 bitrate=N/A speed=15.4x    frame=32051 fps=370 q=-0.0 size=N/A time=00:22:16.79 bitrate=N/A speed=15.4x    frame=32254 fps=370 q=-0.0 size=N/A time=00:22:25.26 bitrate=N/A speed=15.4x    frame=32457 fps=370 q=-0.0 size=N/A time=00:22:33.72 bitrate=N/A speed=15.4x    frame=32658 fps=370 q=-0.0 size=N/A time=00:22:42.11 bitrate=N/A speed=15.4x    frame=32863 fps=370 q=-0.0 size=N/A time=00:22:50.66 bitrate=N/A speed=15.4x    frame=33061 fps=370 q=-0.0 size=N/A time=00:22:58.91 bitrate=N/A speed=15.5x    frame=33263 fps=371 q=-0.0 size=N/A time=00:23:07.34 bitrate=N/A speed=15.5x    frame=33455 fps=371 q=-0.0 size=N/A time=00:23:15.35 bitrate=N/A speed=15.5x    frame=33655 fps=371 q=-0.0 size=N/A time=00:23:23.69 bitrate=N/A speed=15.5x    frame=33855 fps=371 q=-0.0 size=N/A time=00:23:32.03 bitrate=N/A speed=15.5x    [Parsed_psnr_16 @ 0000023c526b95c0] PSNR y:48.933736 u:48.502088 v:48.363739 average:48.760100 min:39.961998 max:76.830322
[out#0/null @ 0000023c54280d00] video:14630KiB audio:266276KiB subtitle:0KiB other streams:0KiB global headers:0KiB muxing overhead: unknown
frame=34047 fps=371 q=-0.0 Lsize=N/A time=00:23:40.04 bitrate=N/A speed=15.5x    
